<?xml version="1.0" encoding="UTF-8"?>
<svg width="700pt" height="700pt" version="1.1" viewBox="0 0 700 700" xmlns="http://www.w3.org/2000/svg" xmlns:xlink="http://www.w3.org/1999/xlink">
 <defs>
  <symbol id="w" overflow="visible">
   <path d="m7.3281-0.4375c-0.375 0.19922-0.77344 0.34375-1.1875 0.4375-0.40625 0.10156-0.83594 0.15625-1.2812 0.15625-1.3242 0-2.375-0.36719-3.1562-1.1094-0.77344-0.75-1.1562-1.7578-1.1562-3.0312 0-1.2695 0.38281-2.2734 1.1562-3.0156 0.78125-0.75 1.832-1.125 3.1562-1.125 0.44531 0 0.875 0.054688 1.2812 0.15625 0.41406 0.10547 0.8125 0.25 1.1875 0.4375v1.6562c-0.38672-0.25781-0.76562-0.44531-1.1406-0.5625-0.36719-0.125-0.75-0.1875-1.1562-0.1875-0.73047 0-1.3086 0.23438-1.7344 0.70312-0.41797 0.46875-0.625 1.1172-0.625 1.9375 0 0.82422 0.20703 1.4766 0.625 1.9531 0.42578 0.46875 1.0039 0.70312 1.7344 0.70312 0.40625 0 0.78906-0.0625 1.1562-0.1875 0.375-0.125 0.75391-0.31641 1.1406-0.57812z"/>
  </symbol>
  <symbol id="d" overflow="visible">
   <path d="m5.3594-4.3594c-0.16797-0.070313-0.33594-0.125-0.5-0.15625-0.16797-0.039063-0.33594-0.0625-0.5-0.0625-0.49219 0-0.87109 0.15625-1.1406 0.46875-0.26172 0.3125-0.39062 0.76562-0.39062 1.3594v2.75h-1.9062v-5.9844h1.9062v0.98438c0.25-0.39453 0.53125-0.67969 0.84375-0.85938 0.32031-0.17578 0.70703-0.26562 1.1562-0.26562 0.0625 0 0.12891 0.007812 0.20312 0.015625 0.070312 0 0.17969 0.011719 0.32812 0.03125z"/>
  </symbol>
  <symbol id="a" overflow="visible">
   <path d="m6.8906-3v0.53125h-4.4688c0.039063 0.44922 0.20312 0.78906 0.48438 1.0156 0.28125 0.23047 0.66406 0.34375 1.1562 0.34375 0.40625 0 0.81641-0.054687 1.2344-0.17188 0.42578-0.125 0.86328-0.3125 1.3125-0.5625v1.4844c-0.46094 0.16797-0.91406 0.29297-1.3594 0.375-0.44922 0.09375-0.90234 0.14062-1.3594 0.14062-1.0859 0-1.9297-0.27344-2.5312-0.82812-0.59375-0.55078-0.89062-1.3203-0.89062-2.3125 0-0.97656 0.28906-1.7422 0.875-2.2969 0.59375-0.5625 1.4062-0.84375 2.4375-0.84375 0.94531 0 1.7031 0.28906 2.2656 0.85938 0.5625 0.5625 0.84375 1.3203 0.84375 2.2656zm-1.9688-0.64062c0-0.36328-0.10938-0.65625-0.32812-0.875-0.21094-0.22656-0.48047-0.34375-0.8125-0.34375-0.375 0-0.67969 0.10547-0.90625 0.3125-0.23047 0.21094-0.375 0.51172-0.4375 0.90625z"/>
  </symbol>
  <symbol id="k" overflow="visible">
   <path d="m3.5938-2.6875c-0.39844 0-0.69922 0.070312-0.90625 0.20312-0.19922 0.13672-0.29688 0.33594-0.29688 0.59375 0 0.24219 0.082031 0.43359 0.25 0.57812 0.16406 0.13672 0.39062 0.20312 0.67188 0.20312 0.36328 0 0.66406-0.12891 0.90625-0.39062 0.25-0.25781 0.375-0.58203 0.375-0.96875v-0.21875zm2.9219-0.71875v3.4062h-1.9219v-0.89062c-0.26172 0.36719-0.55469 0.63281-0.875 0.79688-0.3125 0.16406-0.69922 0.25-1.1562 0.25-0.625 0-1.1328-0.17578-1.5156-0.53125-0.38672-0.36328-0.57812-0.83594-0.57812-1.4219 0-0.69531 0.23828-1.207 0.71875-1.5312 0.48828-0.33203 1.25-0.5 2.2812-0.5h1.125v-0.15625c0-0.30078-0.12109-0.51953-0.35938-0.65625-0.24219-0.14453-0.60938-0.21875-1.1094-0.21875-0.41797 0-0.80469 0.042969-1.1562 0.125-0.34375 0.085937-0.66797 0.21094-0.96875 0.375v-1.4688c0.40625-0.09375 0.8125-0.16406 1.2188-0.21875 0.41406-0.050781 0.83203-0.078125 1.25-0.078125 1.0703 0 1.8477 0.21484 2.3281 0.64062 0.47656 0.42969 0.71875 1.1211 0.71875 2.0781z"/>
  </symbol>
  <symbol id="c" overflow="visible">
   <path d="m3-7.6875v1.7031h1.9844v1.375h-1.9844v2.5312c0 0.28125 0.054688 0.46875 0.17188 0.5625 0.11328 0.09375 0.33203 0.14062 0.65625 0.14062h0.98438v1.375h-1.6406c-0.75 0-1.2891-0.15625-1.6094-0.46875-0.3125-0.3125-0.46875-0.84766-0.46875-1.6094v-2.5312h-0.95312v-1.375h0.95312v-1.7031z"/>
  </symbol>
  <symbol id="f" overflow="visible">
   <path d="m4.9844-5.1094v-3.2031h1.9219v8.3125h-1.9219v-0.85938c-0.26172 0.34375-0.55469 0.60156-0.875 0.76562-0.3125 0.16406-0.67969 0.25-1.0938 0.25-0.74219 0-1.3516-0.28906-1.8281-0.875-0.46875-0.59375-0.70312-1.3477-0.70312-2.2656 0-0.92578 0.23438-1.6797 0.70312-2.2656 0.47656-0.58203 1.0859-0.875 1.8281-0.875 0.41406 0 0.78125 0.085938 1.0938 0.25 0.32031 0.16797 0.61328 0.42188 0.875 0.76562zm-1.25 3.875c0.40625 0 0.71094-0.14453 0.92188-0.4375 0.21875-0.30078 0.32812-0.73828 0.32812-1.3125 0-0.57031-0.10938-1.0039-0.32812-1.2969-0.21094-0.30078-0.51562-0.45312-0.92188-0.45312s-0.71875 0.15234-0.9375 0.45312c-0.21875 0.29297-0.32812 0.72656-0.32812 1.2969 0 0.57422 0.10938 1.0117 0.32812 1.3125 0.21875 0.29297 0.53125 0.4375 0.9375 0.4375z"/>
  </symbol>
  <symbol id="e" overflow="visible">
   <path d="m4.1094-1.2344c0.40625 0 0.71094-0.14453 0.92188-0.4375 0.21875-0.30078 0.32812-0.73828 0.32812-1.3125 0-0.57031-0.10938-1.0039-0.32812-1.2969-0.21094-0.30078-0.51562-0.45312-0.92188-0.45312-0.41797 0-0.73438 0.15234-0.95312 0.45312-0.21875 0.30469-0.32812 0.73438-0.32812 1.2969s0.10938 0.99609 0.32812 1.2969c0.21875 0.30469 0.53516 0.45312 0.95312 0.45312zm-1.2812-3.875c0.25781-0.34375 0.55078-0.59766 0.875-0.76562 0.32031-0.16406 0.69141-0.25 1.1094-0.25 0.73828 0 1.3438 0.29297 1.8125 0.875 0.47656 0.58594 0.71875 1.3398 0.71875 2.2656 0 0.91797-0.24219 1.6719-0.71875 2.2656-0.46875 0.58594-1.0742 0.875-1.8125 0.875-0.41797 0-0.78906-0.085938-1.1094-0.25-0.32422-0.16406-0.61719-0.42188-0.875-0.76562v0.85938h-1.9062v-8.3125h1.9062z"/>
  </symbol>
  <symbol id="j" overflow="visible">
   <path d="m0.14062-5.9844h1.9062l1.6094 4.0625 1.3594-4.0625h1.9219l-2.5156 6.5469c-0.26172 0.66406-0.55859 1.1289-0.89062 1.3906-0.33594 0.26953-0.77734 0.40625-1.3281 0.40625h-1.1094v-1.25h0.59375c0.32031 0 0.55469-0.054687 0.70312-0.15625 0.15625-0.10547 0.27344-0.29297 0.35938-0.5625l0.046875-0.15625z"/>
  </symbol>
  <symbol id="i" overflow="visible">
   <path d="m3.0625-6.4219v4.875h0.73438c0.84375 0 1.4844-0.20703 1.9219-0.625 0.44531-0.41406 0.67188-1.0234 0.67188-1.8281 0-0.78906-0.22656-1.3906-0.67188-1.7969-0.4375-0.41406-1.0781-0.625-1.9219-0.625zm-2.0625-1.5469h2.1719c1.207 0 2.1094 0.089844 2.7031 0.26562 0.59375 0.16797 1.1016 0.45312 1.5312 0.85938 0.375 0.36719 0.64844 0.78125 0.82812 1.25 0.17578 0.46875 0.26562 1 0.26562 1.5938 0 0.60547-0.089844 1.1484-0.26562 1.625-0.17969 0.46875-0.45312 0.88281-0.82812 1.2344-0.42969 0.41797-0.94531 0.71484-1.5469 0.89062-0.59375 0.16797-1.4922 0.25-2.6875 0.25h-2.1719z"/>
  </symbol>
  <symbol id="b" overflow="visible">
   <path d="m3.7656-4.7656c-0.42969 0-0.75 0.15625-0.96875 0.46875-0.21875 0.30469-0.32812 0.74219-0.32812 1.3125 0 0.57422 0.10938 1.0117 0.32812 1.3125 0.21875 0.30469 0.53906 0.45312 0.96875 0.45312 0.41406 0 0.73438-0.14844 0.95312-0.45312 0.21875-0.30078 0.32812-0.73828 0.32812-1.3125 0-0.57031-0.10938-1.0078-0.32812-1.3125-0.21875-0.3125-0.53906-0.46875-0.95312-0.46875zm0-1.3594c1.0312 0 1.832 0.28125 2.4062 0.84375 0.58203 0.55469 0.875 1.3203 0.875 2.2969 0 0.98047-0.29297 1.75-0.875 2.3125-0.57422 0.55469-1.375 0.82812-2.4062 0.82812s-1.8398-0.27344-2.4219-0.82812c-0.58594-0.5625-0.875-1.332-0.875-2.3125 0-0.97656 0.28906-1.7422 0.875-2.2969 0.58203-0.5625 1.3906-0.84375 2.4219-0.84375z"/>
  </symbol>
  <symbol id="h" overflow="visible">
   <path d="m6.4688-4.9844c0.23828-0.375 0.52344-0.65625 0.85938-0.84375 0.33203-0.19531 0.69531-0.29688 1.0938-0.29688 0.6875 0 1.207 0.21484 1.5625 0.64062 0.36328 0.41797 0.54688 1.0312 0.54688 1.8438v3.6406h-1.9219v-3.125-0.14062c0.007813-0.050781 0.015625-0.125 0.015625-0.21875 0-0.41406-0.0625-0.71875-0.1875-0.90625-0.125-0.19531-0.32812-0.29688-0.60938-0.29688-0.36719 0-0.64844 0.15234-0.84375 0.45312-0.19922 0.30469-0.29688 0.73438-0.29688 1.2969v2.9375h-1.9219v-3.125c0-0.65625-0.058594-1.0781-0.17188-1.2656-0.11719-0.19531-0.32031-0.29688-0.60938-0.29688-0.375 0-0.66406 0.15234-0.85938 0.45312-0.19922 0.30469-0.29688 0.73438-0.29688 1.2969v2.9375h-1.9219v-5.9844h1.9219v0.875c0.23828-0.33203 0.50781-0.58203 0.8125-0.75 0.30078-0.17578 0.63281-0.26562 1-0.26562 0.41406 0 0.78125 0.10156 1.0938 0.29688 0.32031 0.19922 0.56641 0.48047 0.73438 0.84375z"/>
  </symbol>
  <symbol id="v" overflow="visible">
   <path d="m2.8281-0.85938v3.1406h-1.9062v-8.2656h1.9062v0.875c0.25781-0.34375 0.55078-0.59766 0.875-0.76562 0.32031-0.16406 0.69141-0.25 1.1094-0.25 0.73828 0 1.3438 0.29297 1.8125 0.875 0.47656 0.58594 0.71875 1.3398 0.71875 2.2656 0 0.91797-0.24219 1.6719-0.71875 2.2656-0.46875 0.58594-1.0742 0.875-1.8125 0.875-0.41797 0-0.78906-0.085938-1.1094-0.25-0.32422-0.16406-0.61719-0.42188-0.875-0.76562zm1.2812-3.875c-0.41797 0-0.73438 0.15234-0.95312 0.45312-0.21875 0.30469-0.32812 0.73438-0.32812 1.2969s0.10938 0.99609 0.32812 1.2969c0.21875 0.30469 0.53516 0.45312 0.95312 0.45312 0.40625 0 0.71094-0.14453 0.92188-0.4375 0.21875-0.30078 0.32812-0.73828 0.32812-1.3125 0-0.57031-0.10938-1.0039-0.32812-1.2969-0.21094-0.30078-0.51562-0.45312-0.92188-0.45312z"/>
  </symbol>
  <symbol id="u" overflow="visible">
   <path d="m0.92188-8.3125h1.9062v8.3125h-1.9062z"/>
  </symbol>
  <symbol id="t" overflow="visible">
   <path d="m6.5469-7.7188v1.6875c-0.4375-0.19531-0.86719-0.34375-1.2812-0.4375-0.41797-0.10156-0.80859-0.15625-1.1719-0.15625-0.49219 0-0.85547 0.070312-1.0938 0.20312-0.23047 0.13672-0.34375 0.34375-0.34375 0.625 0 0.21875 0.078125 0.39062 0.23438 0.51562 0.15625 0.11719 0.44141 0.21484 0.85938 0.29688l0.875 0.17188c0.88281 0.17969 1.5156 0.44922 1.8906 0.8125 0.375 0.36719 0.5625 0.88281 0.5625 1.5469 0 0.88672-0.26172 1.543-0.78125 1.9688-0.52344 0.42969-1.3203 0.64062-2.3906 0.64062-0.51172 0-1.0234-0.054688-1.5312-0.15625-0.5-0.09375-1.0078-0.23438-1.5156-0.42188v-1.7344c0.50781 0.27344 1 0.48047 1.4688 0.625 0.47656 0.13672 0.9375 0.20312 1.375 0.20312 0.44531 0 0.78906-0.070313 1.0312-0.21875 0.23828-0.15625 0.35938-0.375 0.35938-0.65625 0-0.25-0.085938-0.44141-0.25-0.57812-0.15625-0.13281-0.48047-0.25391-0.96875-0.35938l-0.78125-0.17188c-0.80469-0.17578-1.3906-0.44531-1.7656-0.8125-0.36719-0.375-0.54688-0.87891-0.54688-1.5156 0-0.80078 0.25391-1.4141 0.76562-1.8438 0.51953-0.42578 1.2578-0.64062 2.2188-0.64062 0.4375 0 0.88281 0.039062 1.3438 0.10938 0.46875 0.0625 0.94531 0.16406 1.4375 0.29688z"/>
  </symbol>
  <symbol id="g" overflow="visible">
   <path d="m0.85938-2.3281v-3.6562h1.9219v0.59375c0 0.33594-0.007812 0.74609-0.015625 1.2344v0.96875c0 0.48047 0.007813 0.82812 0.03125 1.0469 0.03125 0.21094 0.078125 0.35938 0.14062 0.45312 0.070312 0.125 0.17188 0.22656 0.29688 0.29688 0.125 0.0625 0.26953 0.09375 0.4375 0.09375 0.39453 0 0.70703-0.14844 0.9375-0.45312 0.22656-0.3125 0.34375-0.73828 0.34375-1.2812v-2.9531h1.9219v5.9844h-1.9219v-0.85938c-0.28125 0.34375-0.58594 0.60156-0.90625 0.76562-0.32422 0.16406-0.68359 0.25-1.0781 0.25-0.6875 0-1.2148-0.20703-1.5781-0.625-0.35547-0.42578-0.53125-1.0469-0.53125-1.8594z"/>
  </symbol>
  <symbol id="s" overflow="visible">
   <path d="m0.92188-5.9844h1.9062v5.9844h-1.9062zm0-2.3281h1.9062v1.5625h-1.9062z"/>
  </symbol>
  <symbol id="r" overflow="visible">
   <path d="m4.8594-8.3125v1.25h-1.0625c-0.27344 0-0.46094 0.054688-0.5625 0.15625-0.10547 0.09375-0.15625 0.26562-0.15625 0.51562v0.40625h1.625v1.375h-1.625v4.6094h-1.9219v-4.6094h-0.95312v-1.375h0.95312v-0.40625c0-0.65625 0.17969-1.1406 0.54688-1.4531 0.36328-0.3125 0.92578-0.46875 1.6875-0.46875z"/>
  </symbol>
  <symbol id="q" overflow="visible">
   <path d="m6.9375-3.6406v3.6406h-1.9219v-2.7812c0-0.51953-0.015625-0.87891-0.046875-1.0781-0.023438-0.19531-0.058594-0.33594-0.10938-0.42188-0.074219-0.125-0.17969-0.22266-0.3125-0.29688-0.125-0.070313-0.27344-0.10938-0.4375-0.10938-0.39844 0-0.71094 0.15625-0.9375 0.46875-0.23047 0.30469-0.34375 0.73047-0.34375 1.2812v2.9375h-1.9062v-8.3125h1.9062v3.2031c0.28906-0.34375 0.59766-0.59766 0.92188-0.76562 0.32031-0.16406 0.67969-0.25 1.0781-0.25 0.6875 0 1.207 0.21484 1.5625 0.64062 0.36328 0.41797 0.54688 1.0312 0.54688 1.8438z"/>
  </symbol>
  <symbol id="p" overflow="visible">
   <path d="m1-7.9688h2.2969l2.9062 5.4688v-5.4688h1.9531v7.9688h-2.2969l-2.9062-5.4688v5.4688h-1.9531z"/>
  </symbol>
  <symbol id="o" overflow="visible">
   <path d="m6.9375-3.6406v3.6406h-1.9219v-2.7812c0-0.51953-0.015625-0.87891-0.046875-1.0781-0.023438-0.19531-0.058594-0.33594-0.10938-0.42188-0.074219-0.125-0.17969-0.22266-0.3125-0.29688-0.125-0.070313-0.27344-0.10938-0.4375-0.10938-0.39844 0-0.71094 0.15625-0.9375 0.46875-0.23047 0.30469-0.34375 0.73047-0.34375 1.2812v2.9375h-1.9062v-5.9844h1.9062v0.875c0.28906-0.34375 0.59766-0.59766 0.92188-0.76562 0.32031-0.16406 0.67969-0.25 1.0781-0.25 0.6875 0 1.207 0.21484 1.5625 0.64062 0.36328 0.41797 0.54688 1.0312 0.54688 1.8438z"/>
  </symbol>
  <symbol id="n" overflow="visible">
   <path d="m1-7.9688h3.4219c1.0078 0 1.7852 0.22656 2.3281 0.67188 0.53906 0.44922 0.8125 1.0898 0.8125 1.9219 0 0.83594-0.27344 1.4805-0.8125 1.9375-0.54297 0.44922-1.3203 0.67188-2.3281 0.67188h-1.3594v2.7656h-2.0625zm2.0625 1.4844v2.2344h1.1406c0.39453 0 0.70312-0.097656 0.92188-0.29688 0.21875-0.19531 0.32812-0.47266 0.32812-0.82812 0-0.35156-0.10938-0.625-0.32812-0.8125-0.21875-0.19531-0.52734-0.29688-0.92188-0.29688z"/>
  </symbol>
  <symbol id="m" overflow="visible">
   <path d="m0.92188-5.9844h1.9062v5.875c0 0.80078-0.19531 1.4102-0.57812 1.8281-0.38672 0.42578-0.94531 0.64062-1.6719 0.64062h-0.9375v-1.25h0.32812c0.36328 0 0.61328-0.085937 0.75-0.25 0.13281-0.16797 0.20312-0.49219 0.20312-0.96875zm0-2.3281h1.9062v1.5625h-1.9062z"/>
  </symbol>
  <symbol id="l" overflow="visible">
   <path d="m5.75-5.7969v1.5625c-0.26172-0.17578-0.52344-0.30469-0.78125-0.39062-0.26172-0.09375-0.53125-0.14062-0.8125-0.14062-0.53125 0-0.94922 0.15625-1.25 0.46875-0.29297 0.3125-0.4375 0.75-0.4375 1.3125s0.14453 1 0.4375 1.3125c0.30078 0.30469 0.71875 0.45312 1.25 0.45312 0.30078 0 0.58203-0.039062 0.84375-0.125 0.26953-0.09375 0.51953-0.22266 0.75-0.39062v1.5625c-0.30469 0.10547-0.60938 0.17969-0.92188 0.23438-0.30469 0.0625-0.60547 0.09375-0.90625 0.09375-1.0859 0-1.9336-0.27344-2.5469-0.82812-0.60547-0.55078-0.90625-1.3203-0.90625-2.3125 0-0.98828 0.30078-1.7578 0.90625-2.3125 0.61328-0.55078 1.4609-0.82812 2.5469-0.82812 0.3125 0 0.61719 0.03125 0.92188 0.09375 0.30078 0.054688 0.60156 0.13281 0.90625 0.23438z"/>
  </symbol>
 </defs>
 <g>
  <path d="m350 266.88c15.641 0 21.176-10.719 21.414-11.18l-7.8086-3.9609c-0.13281 0.26172-3.543 6.3867-13.605 6.3867s-13.477-6.125-13.605-6.3867l-7.8086 3.9609c0.23828 0.46094 5.7734 11.18 21.414 11.18z"/>
  <path d="m503.12 516.25c-0.52344-44.648-9.2969-87.805-23.539-120.31 9.6914-1.6641 14.699 7.3281 15.312 8.4883 0.72266 1.4727 2.2109 2.418 3.8516 2.4492 1.6602 0 3.1758-0.94141 3.9141-2.4297 0.50391-0.98437 12.207-24.062 33.84-15.312 18.375 7.3516 14.832 34.43 14.789 34.695-0.23047 1.7695 0.63672 3.5 2.1875 4.375 0.66797 0.37109 1.4219 0.56641 2.1875 0.57031 0.99609-0.003907 1.9609-0.34375 2.7344-0.96484 0.96094-0.76562 23.516-19.469 23.516-77.699 0-47.84-43.969-71.555-58.758-78.137h0.003906c-6.0898-5.7891-12.77-10.922-19.93-15.312-1.2188-0.74219-2.7266-0.83984-4.0312-0.26562-1.3086 0.57422-2.2539 1.75-2.5312 3.1523-1.4414 8.1172-2.1758 16.344-2.1875 24.586-8.1172 53.352-42.633 60.551-51.91 61.512v0.003907c-7.3789-5.9258-15.281-11.176-23.602-15.688 15.594-11.082 25.098-28.828 25.68-47.949 6.9297-0.30859 13.41-3.5195 17.859-8.8398 4.4492-5.3242 6.457-12.273 5.5312-19.148-0.92188-6.875-4.6953-13.047-10.391-17.004-5.6953-3.957-12.797-5.3398-19.562-3.8086l-0.52344 0.10937v-75.82c-0.011718-10.773-2.2461-21.43-6.5625-31.305 16.473-19.008 18.484-42.305 6.168-71.051v0.003907c-0.76562-1.8086-2.6406-2.8828-4.5859-2.6328-1.9453 0.25-3.4844 1.7617-3.7695 3.7031-2.5156 16.668-6.7383 32.945-19.84 40.645-14.109-11.727-31.883-18.133-50.227-18.113h-17.5c-18.375-0.042969-36.18 6.3672-50.312 18.113-13.125-7.6992-17.324-24.062-19.84-40.645-0.28516-1.9414-1.8281-3.4531-3.7734-3.7031-1.9453-0.25-3.8164 0.82422-4.582 2.6328-12.207 28.742-10.195 52.039 6.3203 71.047-4.3164 9.875-6.5508 20.531-6.5625 31.305v75.73l-0.54688-0.13281v0.003906c-1.7695-0.38672-3.5703-0.58594-5.3828-0.59375-8.7148-0.027343-16.805 4.5391-21.281 12.016-4.4805 7.4805-4.6914 16.766-0.55469 24.438 4.1406 7.6719 12.012 12.598 20.723 12.965 0.58203 19.121 10.086 36.867 25.68 47.949-8.3242 4.5312-16.223 9.8008-23.602 15.75-9.2734-0.96094-43.75-8.1602-51.91-61.512-0.011719-8.2461-0.74609-16.473-2.1875-24.59-0.27734-1.3984-1.2227-2.5742-2.5312-3.1523-1.3047-0.57422-2.8125-0.47656-4.0312 0.26562-7.1602 4.3945-13.84 9.5273-19.93 15.312-14.852 6.5859-58.82 30.297-58.82 78.051 0 58.23 22.555 76.934 23.516 77.699 0.76562 0.65625 1.7305 1.0234 2.7344 1.0508 0.76562 0 1.5195-0.19531 2.1875-0.57031 1.5508-0.875 2.418-2.6055 2.1875-4.375 0-0.28516-3.6758-27.32 14.789-34.695 21.523-8.6172 33.336 14.395 33.84 15.312v0.003906c0.72656 1.4805 2.2227 2.4258 3.8711 2.4492 1.6562 0.003906 3.1719-0.92969 3.9141-2.4062 0.61328-1.1797 5.6211-10.172 15.312-8.5078-14.262 32.484-23.031 75.641-23.602 120.29h-91.875v8.75h490v-8.75zm11.309-240.49c-3.1836 2.5742-7.0898 4.1055-11.176 4.375 0.15234-4.7891 0.58984-9.1016 1.0078-12.402l-0.003906-0.003907c3.5273 2.4844 6.9062 5.1641 10.129 8.0312zm-11.988 13.125c7.2109-0.12109 14.109-2.9727 19.297-7.9844 15.094 7.1953 51.383 28.633 51.383 69.102 0 32.199-7.2617 51.254-13.125 61.359-1.1367-10.652-5.5547-24.609-20.301-30.625-19.293-7.7227-33.82 3.4336-41.258 13.648h0.003906c-2.7383-3.1914-6.3398-5.5273-10.371-6.7266-4.0312-1.1953-8.3203-1.207-12.359-0.03125-5.582-11.828-13.023-22.688-22.051-32.156-0.98437-0.98438-1.9688-1.9453-2.9766-2.8867 15.492-3.8281 43.426-17.523 51.715-63.68zm-83.781 50.902c-4.7461 11.617-20.758 44.297-56.023 58.539 14.285-21.328 17.238-46.965 17.871-57.094h2.8438l0.003906-0.003907c9.2266-0.003906 18.332-2.0898 26.645-6.1016 2.6016 1.3359 5.6211 2.8672 8.6172 4.6797zm-68.664 60.637c-17.238-19.906-20.891-48.367-21.68-59.172h43.355c-0.78516 10.805-4.4375 39.375-21.676 59.172zm89.883-158.77c1.1641-0.25391 2.3555-0.38281 3.5469-0.39453 5.7031-0.13281 11.047 2.7891 14.016 7.6641 2.9648 4.875 3.1094 10.961 0.37109 15.969-2.7383 5.0078-7.9375 8.1719-13.645 8.3047-0.62891-5.6484-2.0352-11.184-4.1797-16.449l-2.4922-6.0352v-8.5078zm-5.6445-168.2c4.375 17.324 1.9023 31.719-7.6133 44.188h0.003906c-3.0859-5.2773-6.7773-10.176-11.004-14.59 10.039-6.8047 15.312-17.742 18.617-29.598zm-75.488 14.043c18.566 0 36.371 7.375 49.496 20.504 13.129 13.125 20.504 30.93 20.504 49.496v56.109c-5.2383-1.8516-8.7422-6.8008-8.75-12.359v-35c0.003906-0.67578-0.15234-1.3438-0.46094-1.9453l-2.5391-5.0742 0.003906-0.003907c-3.332-6.6523-9.168-11.707-16.23-14.059-7.0586-2.3516-14.762-1.8008-21.418 1.5273-18.492 9.1758-40.219 9.1758-58.711 0-6.6562-3.3281-14.359-3.8789-21.418-1.5273-7.0625 2.3516-12.898 7.4062-16.23 14.059l-2.5391 5.0742 0.003907 0.003907c-0.30859 0.60156-0.46484 1.2695-0.46094 1.9453v35c0.023438 5.582-3.4883 10.566-8.75 12.426v-56.176c0-18.566 7.375-36.371 20.504-49.496 13.125-13.129 30.93-20.504 49.496-20.504zm-92.992-14.043c3.3047 11.855 8.5781 22.793 18.617 29.598-4.2031 4.418-7.875 9.3164-10.938 14.59-9.582-12.469-12.074-26.863-7.6797-44.188zm-5.7539 183.29h0.003906c-2.1094 5.2695-3.4766 10.805-4.0703 16.449-5.707-0.13281-10.906-3.2969-13.645-8.3047s-2.5938-11.094 0.37109-15.969c2.9688-4.875 8.3125-7.7969 14.016-7.6641 1.1875 0.007813 2.3672 0.14063 3.5234 0.39453l2.4062 0.54688v8.5078zm13.125 52.5h0.003906c-9.7773-14.527-11.641-32.984-4.9688-49.176l2.8008-6.8477v0.003906c0.20312-0.53125 0.30078-1.0977 0.28516-1.6641v-28.875c4.9297-1.0273 9.3594-3.7188 12.547-7.6211 3.1836-3.9023 4.9336-8.7773 4.9531-13.816v-33.906l2.0547-4.1328c2.2734-4.6055 6.2812-8.1172 11.145-9.7578 4.8672-1.6406 10.184-1.2773 14.777 1.0078 20.961 10.41 45.586 10.41 66.547 0 4.5938-2.2852 9.9102-2.6484 14.777-1.0078 4.8633 1.6406 8.8711 5.1523 11.145 9.7578l2.0547 4.1328v33.906c0.003906 5.0469 1.7461 9.9414 4.9336 13.859 3.1875 3.9141 7.625 6.6133 12.566 7.6445v28.809c0 0.57031 0.11328 1.1367 0.32812 1.6641l2.8008 6.8477v-0.003907c6.6406 16.191 4.7812 34.629-4.9648 49.168-9.7461 14.535-26.098 23.258-43.598 23.262h-66.633c-17.504 0.023438-33.863-8.7031-43.598-23.254zm43.555 32.004h2.8438c0.63281 10.129 3.5859 35.766 17.871 57.094-35.262-14.242-51.273-46.922-56.023-58.539 3.1055-1.8164 6.0156-3.3477 8.75-4.6602l0.003906 0.003907c8.2812 3.9961 17.359 6.082 26.555 6.1016zm-119.81-61.117c-4.0898-0.26172-8-1.7891-11.18-4.375 3.2383-2.8672 6.6328-5.5508 10.172-8.0312 0.32812 3.3047 0.76562 7.6133 1.0078 12.406zm4.7266 114.45c-7.4375-10.215-21.875-21.352-41.258-13.648-14.742 5.9062-19.164 19.863-20.301 30.625-5.8203-10.105-13.125-29.18-13.125-61.359 0-40.555 36.289-61.992 51.43-69.168v-0.003906c5.1836 5.0117 12.082 7.8672 19.293 7.9844 8.2891 46.156 36.227 59.852 51.668 63.875-1.0078 0.94141-1.9922 1.9023-2.9766 2.8867h0.003907c-9.0273 9.4727-16.469 20.328-22.051 32.156-4.0352-1.1992-8.3281-1.207-12.367-0.027344-4.0391 1.1797-7.6523 3.4961-10.406 6.6797zm50.945-32.812c6.5234-6.4688 13.664-12.281 21.328-17.348 6.5625 15.707 27.41 55.629 75.227 66.652 0.64844 0.14844 1.3242 0.14844 1.9688 0 47.82-10.938 68.711-50.945 75.227-66.652h0.003906c7.6602 5.0664 14.805 10.879 21.328 17.348 22.684 22.945 45.828 79.34 46.746 154.48h-48.125c-0.74219-63.023-17.305-92.773-18.023-94.062l-7.6133 4.375c0.17578 0.28516 16.145 29.27 16.887 89.688h-175c0.74219-60.441 16.711-89.426 16.887-89.688l-3.7617-2.1875-3.8047-2.1875c-0.72266 1.2695-17.281 31.02-18.023 94.062h-48.172c0.91797-75.141 24.062-131.54 46.836-154.41z"/>
  <path d="m310.62 227.5h8.75v17.5h-8.75z"/>
  <path d="m313.95 204.18c2.4844 0.46875 4.6953 1.8594 6.1914 3.8945l7.2422-4.8789c-2.9023-4.2148-7.4453-7.0078-12.516-7.6992-5.4453-0.57031-10.938 1.8164-16.078 7.043l6.168 6.168c3.2617-3.2344 6.2812-4.7656 8.9922-4.5273z"/>
  <path d="m380.62 227.5h8.75v17.5h-8.75z"/>
  <path d="m386.05 204.18c2.7344-0.24219 5.7305 1.2891 8.9922 4.5273l6.168-6.168c-5.207-5.2266-10.633-7.6133-16.078-7.043-5.0703 0.69141-9.6133 3.4844-12.516 7.6992l7.2422 4.8789c1.4961-2.0352 3.707-3.4258 6.1914-3.8945z"/>
  <use x="70" y="592.8125" xlink:href="#w"/>
  <use x="78.027344" y="592.8125" xlink:href="#d"/>
  <use x="83.421875" y="592.8125" xlink:href="#a"/>
  <use x="90.839844" y="592.8125" xlink:href="#k"/>
  <use x="98.21875" y="592.8125" xlink:href="#c"/>
  <use x="103.449219" y="592.8125" xlink:href="#a"/>
  <use x="110.867188" y="592.8125" xlink:href="#f"/>
  <use x="122.503906" y="592.8125" xlink:href="#e"/>
  <use x="130.332031" y="592.8125" xlink:href="#j"/>
  <use x="141.269531" y="592.8125" xlink:href="#i"/>
  <use x="150.347656" y="592.8125" xlink:href="#b"/>
  <use x="157.863281" y="592.8125" xlink:href="#h"/>
  <use x="169.261719" y="592.8125" xlink:href="#v"/>
  <use x="177.089844" y="592.8125" xlink:href="#e"/>
  <use x="184.917969" y="592.8125" xlink:href="#a"/>
  <use x="192.335938" y="592.8125" xlink:href="#u"/>
  <use x="196.085938" y="592.8125" xlink:href="#t"/>
  <use x="203.964844" y="592.8125" xlink:href="#c"/>
  <use x="209.191406" y="592.8125" xlink:href="#g"/>
  <use x="216.976562" y="592.8125" xlink:href="#f"/>
  <use x="224.808594" y="592.8125" xlink:href="#s"/>
  <use x="228.554687" y="592.8125" xlink:href="#b"/>
  <use x="70" y="603.75" xlink:href="#r"/>
  <use x="74.757812" y="603.75" xlink:href="#d"/>
  <use x="80.152344" y="603.75" xlink:href="#b"/>
  <use x="87.667969" y="603.75" xlink:href="#h"/>
  <use x="102.871094" y="603.75" xlink:href="#c"/>
  <use x="108.101562" y="603.75" xlink:href="#q"/>
  <use x="115.886719" y="603.75" xlink:href="#a"/>
  <use x="127.113281" y="603.75" xlink:href="#p"/>
  <use x="136.265625" y="603.75" xlink:href="#b"/>
  <use x="143.78125" y="603.75" xlink:href="#g"/>
  <use x="151.566406" y="603.75" xlink:href="#o"/>
  <use x="163.160156" y="603.75" xlink:href="#n"/>
  <use x="171.175781" y="603.75" xlink:href="#d"/>
  <use x="176.570312" y="603.75" xlink:href="#b"/>
  <use x="184.085938" y="603.75" xlink:href="#m"/>
  <use x="187.835937" y="603.75" xlink:href="#a"/>
  <use x="195.253906" y="603.75" xlink:href="#l"/>
  <use x="201.734375" y="603.75" xlink:href="#c"/>
 </g>
</svg>
